<?xml version="1.0" encoding="UTF-8" standalone="no"?>
<svg
   viewBox="0 0 640 640"
   version="1.1"
   id="svg1"
   sodipodi:docname="icon3.svg"
   inkscape:version="1.3.2 (091e20e, 2023-11-25, custom)"
   xmlns:inkscape="http://www.inkscape.org/namespaces/inkscape"
   xmlns:sodipodi="http://sodipodi.sourceforge.net/DTD/sodipodi-0.dtd"
   xmlns="http://www.w3.org/2000/svg"
   xmlns:svg="http://www.w3.org/2000/svg">
  <defs
     id="defs1" />
  <sodipodi:namedview
     id="namedview1"
     pagecolor="#505050"
     bordercolor="#eeeeee"
     borderopacity="1"
     inkscape:showpageshadow="0"
     inkscape:pageopacity="0"
     inkscape:pagecheckerboard="0"
     inkscape:deskcolor="#505050"
     inkscape:zoom="1.2562194"
     inkscape:cx="369.76025"
     inkscape:cy="356.22759"
     inkscape:window-width="2558"
     inkscape:window-height="1341"
     inkscape:window-x="1272"
     inkscape:window-y="0"
     inkscape:window-maximized="0"
     inkscape:current-layer="svg1" />
  <!--! Font Awesome Free 7.1.0 by @fontawesome - https://fontawesome.com License - https://fontawesome.com/license/free (Icons: CC BY 4.0, Fonts: SIL OFL 1.1, Code: MIT License) Copyright 2025 Fonticons, Inc. -->
  <path
     fill="currentColor"
     d="M 241.37501,40 C 218,40 196.125,51.75 183.125,71.125 L 150.625,120 H 80.000001 C 35.875001,120 0,155.87501 0,200 V 520.00001 C 0,564.12501 35.875001,600 80.000001,600 H 560 c 44.125,0 80.00001,-35.87499 80.00001,-79.99999 V 200 C 640.00001,155.87501 604.125,120 560,120 H 489.37501 L 456.875,71.125 C 443.87501,51.75 422,40 398.625,40 Z M 233,104.5 c 1.875,-2.75 5,-4.5 8.37501,-4.5 H 398.5 c 3.375,0 6.5,1.625 8.375,4.5 l 41.5,62.25 c 5.625,8.375 14.87501,13.37501 25.00001,13.37501 H 560 c 11.00001,0 20.00001,9 20.00001,19.99999 v 320 c 0,11.00001 -9,20.00001 -20.00001,20.00001 l -479.999999,-0.125 c -11,0 -20.000001,-9 -20.000001,-20 V 200 c 0,-11 9.000001,-20 20.000001,-20 H 166.625 c 10.00001,0 19.375,-5 25,-13.375 l 41.50001,-62.25 z m 87,375.50001 c 77.375,0 140,-62.62501 140,-140 C 460,262.62501 397.375,200 320,200 c -77.375,0 -140,62.62501 -140,140.00001 0,77.37499 62.625,140 140,140 z m -80,-140 c 0,-44.125 35.875,-80 80,-80 44.125,0 80.00001,35.875 80.00001,80 C 400.00001,384.125 364.125,420 320,420 c -44.125,0 -80,-35.875 -80,-79.99999 z"
     id="path1"
     style="stroke-width:1" />
</svg>
