<?xml version="1.0" encoding="UTF-8" standalone="no"?>
<svg
   viewBox="0 0 640 640"
   version="1.1"
   id="svg1"
   sodipodi:docname="icon5.svg"
   inkscape:version="1.3.2 (091e20e, 2023-11-25, custom)"
   xmlns:inkscape="http://www.inkscape.org/namespaces/inkscape"
   xmlns:sodipodi="http://sodipodi.sourceforge.net/DTD/sodipodi-0.dtd"
   xmlns="http://www.w3.org/2000/svg"
   xmlns:svg="http://www.w3.org/2000/svg">
  <defs
     id="defs1" />
  <sodipodi:namedview
     id="namedview1"
     pagecolor="#505050"
     bordercolor="#eeeeee"
     borderopacity="1"
     inkscape:showpageshadow="0"
     inkscape:pageopacity="0"
     inkscape:pagecheckerboard="0"
     inkscape:deskcolor="#505050"
     inkscape:zoom="5.0248776"
     inkscape:cx="562.70028"
     inkscape:cy="595.13888"
     inkscape:window-width="2558"
     inkscape:window-height="1341"
     inkscape:window-x="1272"
     inkscape:window-y="0"
     inkscape:window-maximized="0"
     inkscape:current-layer="svg1" />
  <!--! Font Awesome Free 7.1.0 by @fontawesome - https://fontawesome.com License - https://fontawesome.com/license/free (Icons: CC BY 4.0, Fonts: SIL OFL 1.1, Code: MIT License) Copyright 2025 Fonticons, Inc. -->
  <path
     fill="currentColor"
     d="m 520.02541,259.96191 c 0,57.36659 -18.62591,110.35883 -50.00245,153.35254 L 628.2807,571.66624 c 15.62576,15.62271 15.62576,40.994 0,56.6167 -15.62576,15.62271 -41.00201,15.62271 -56.62777,0 L 413.3952,469.93114 C 370.3931,501.30155 317.39051,519.92382 260.01271,519.92382 116.38069,519.92382 0,403.56587 0,259.96191 0,116.35795 116.38069,0 260.01271,0 c 143.63201,0 260.0127,116.35795 260.0127,259.96191 z m -260.0127,179.97363 c 99.37985,0 180.00879,-80.61319 180.00879,-179.97363 0,-99.36044 -80.62894,-179.97363 -180.00879,-179.97363 -99.37986,0 -180.008801,80.61319 -180.008801,179.97363 0,99.36044 80.628941,179.97363 180.008801,179.97363 z"
     id="path1"
     style="stroke-width:1" />
</svg>
