<?xml version="1.0" encoding="UTF-8" standalone="no"?>
<svg
   viewBox="0 0 640 640"
   version="1.1"
   id="svg1"
   sodipodi:docname="icon4.svg"
   inkscape:version="1.3.2 (091e20e, 2023-11-25, custom)"
   xmlns:inkscape="http://www.inkscape.org/namespaces/inkscape"
   xmlns:sodipodi="http://sodipodi.sourceforge.net/DTD/sodipodi-0.dtd"
   xmlns="http://www.w3.org/2000/svg"
   xmlns:svg="http://www.w3.org/2000/svg">
  <defs
     id="defs1" />
  <sodipodi:namedview
     id="namedview1"
     pagecolor="#505050"
     bordercolor="#eeeeee"
     borderopacity="1"
     inkscape:showpageshadow="0"
     inkscape:pageopacity="0"
     inkscape:pagecheckerboard="0"
     inkscape:deskcolor="#505050"
     inkscape:zoom="1.2562194"
     inkscape:cx="107.06729"
     inkscape:cy="416.72657"
     inkscape:window-width="2558"
     inkscape:window-height="1341"
     inkscape:window-x="1272"
     inkscape:window-y="0"
     inkscape:window-maximized="0"
     inkscape:current-layer="svg1" />
  <!--! Font Awesome Free 7.1.0 by @fontawesome - https://fontawesome.com License - https://fontawesome.com/license/free (Icons: CC BY 4.0, Fonts: SIL OFL 1.1, Code: MIT License) Copyright 2025 Fonticons, Inc. -->
  <path
     fill="currentColor"
     d="M 80,20 C 35.874999,20 0,55.875 0,100 v 400 c 0,44.125 35.874999,80.00001 80,80.00001 C 80,602.125 97.874998,620 120,620 c 22.125,0 40.00001,-17.875 40.00001,-39.99999 H 479.99999 C 479.99999,602.125 497.87499,620 520,620 c 22.12499,0 40,-17.875 40,-39.99999 44.12499,0 80,-35.87501 80,-80.00001 V 100 C 640,55.875 604.12499,20 560,20 Z m 239.99999,280 c 0,-44.125 -35.87498,-80 -79.99999,-80 -44.125,0 -79.99999,35.875 -79.99999,80 0,44.125 35.87499,80 79.99999,80 44.12501,0 79.99999,-35.875 79.99999,-80 z M 80,300 c 0,-88.37499 71.625,-160 160,-160 88.37499,0 159.99999,71.62501 159.99999,160 0,88.375 -71.625,160 -159.99999,160 C 151.625,460 80,388.375 80,300 Z m 480,-60 c 0,22.25 -12.12501,41.62501 -30.00001,52 v 98 c 0,16.625 -13.375,30 -30,30 -16.625,0 -30,-13.375 -30,-30 v -98 c -17.875,-10.37499 -30,-29.75 -30,-52 0,-33.125 26.875,-59.99999 60,-59.99999 C 533.12499,180.00001 560,206.875 560,240 Z"
     id="path1"
     style="stroke-width:1" />
</svg>
